<svg xmlns="http://www.w3.org/2000/svg" xmlns:xlink="http://www.w3.org/1999/xlink" width="500" zoomAndPan="magnify" viewBox="0 0 375 374.999991" height="500" preserveAspectRatio="xMidYMid meet" version="1.0"><defs><g/><clipPath id="98d29fcffd"><path d="M 1.222656 0 L 375 0 L 375 375 L 1.222656 375 Z M 1.222656 0 " clip-rule="nonzero"/></clipPath><clipPath id="300c916e2e"><path d="M 188.722656 0 C 85.171875 0 1.222656 83.945312 1.222656 187.5 C 1.222656 291.054688 85.171875 375 188.722656 375 C 292.277344 375 376.222656 291.054688 376.222656 187.5 C 376.222656 83.945312 292.277344 0 188.722656 0 Z M 188.722656 0 " clip-rule="nonzero"/></clipPath></defs><g clip-path="url(#98d29fcffd)"><g clip-path="url(#300c916e2e)"><path fill="#ffffff" d="M 1.222656 0 L 376.222656 0 L 376.222656 375 L 1.222656 375 Z M 1.222656 0 " fill-opacity="1" fill-rule="nonzero"/></g></g><g fill="#000000" fill-opacity="1"><g transform="translate(51.188751, 288.101505)"><g><path d="M 45.71875 -41.390625 C 36.84375 -44.660156 27.773438 -49.09375 18.515625 -54.6875 C 17.554688 -55.269531 16.59375 -55.5625 15.625 -55.5625 C 13.113281 -55.5625 11.378906 -54.40625 10.421875 -52.09375 L -2.3125 -26.625 C -2.894531 -25.46875 -3.1875 -24.40625 -3.1875 -23.4375 C -3.1875 -21.507812 -2.125 -19.96875 0 -18.8125 C 19.488281 -8.195312 35.695312 -2.21875 48.625 -0.875 C 54.019531 -0.488281 58.066406 -0.296875 60.765625 -0.296875 C 72.347656 -0.296875 82.863281 -2.125 92.3125 -5.78125 C 101.1875 -9.257812 108.320312 -14.953125 113.71875 -22.859375 C 119.125 -30.773438 122.890625 -40.226562 125.015625 -51.21875 L 125.015625 -51.515625 C 125.210938 -52.859375 125.3125 -54.976562 125.3125 -57.875 C 125.3125 -79.289062 113.347656 -97.234375 89.421875 -111.703125 L 80.453125 -117.203125 C 76.015625 -119.898438 72.15625 -122.890625 68.875 -126.171875 C 63.46875 -130.992188 60.765625 -136.585938 60.765625 -142.953125 C 60.765625 -146.816406 61.734375 -150.582031 63.671875 -154.25 C 65.984375 -160.226562 69.9375 -162.734375 75.53125 -161.765625 L 75.828125 -161.765625 C 77.941406 -161.578125 79.289062 -159.742188 79.875 -156.265625 C 80.445312 -149.128906 80.734375 -142.28125 80.734375 -135.71875 C 80.734375 -131.863281 82.664062 -129.9375 86.53125 -129.9375 L 120.09375 -129.9375 C 123.957031 -129.9375 125.890625 -131.769531 125.890625 -135.4375 C 126.273438 -141.601562 126.46875 -146.90625 126.46875 -151.34375 C 126.46875 -155.207031 126.273438 -158.679688 125.890625 -161.765625 C 125.117188 -171.222656 122.609375 -178.648438 118.359375 -184.046875 C 109.867188 -194.460938 96.554688 -199.671875 78.421875 -199.671875 C 73.410156 -199.671875 68.585938 -199.382812 63.953125 -198.8125 C 42.734375 -196.300781 27.300781 -186.554688 17.65625 -169.578125 C 10.707031 -158.003906 7.234375 -146.046875 7.234375 -133.703125 C 7.234375 -128.679688 7.8125 -123.566406 8.96875 -118.359375 C 10.894531 -110.253906 14.460938 -103.789062 19.671875 -98.96875 C 19.671875 -98.96875 19.71875 -98.921875 19.8125 -98.828125 C 19.914062 -98.734375 19.96875 -98.6875 19.96875 -98.6875 C 29.414062 -90.769531 35.109375 -86.332031 37.046875 -85.375 L 37.625 -85.078125 L 43.40625 -81.609375 C 53.25 -75.628906 59.617188 -71.484375 62.515625 -69.171875 C 68.492188 -64.734375 71.484375 -59.132812 71.484375 -52.375 C 71.484375 -48.132812 70.179688 -44.851562 67.578125 -42.53125 C 64.972656 -40.21875 61.546875 -39.0625 57.296875 -39.0625 C 53.828125 -39.0625 49.96875 -39.835938 45.71875 -41.390625 Z M 92.609375 -165.828125 L 93.765625 -165.828125 L 93.765625 -165.234375 L 92.609375 -165.234375 Z M 100.125 -155.984375 C 99.9375 -155.785156 99.695312 -155.6875 99.40625 -155.6875 C 99.113281 -155.6875 99.066406 -155.878906 99.265625 -156.265625 C 99.265625 -156.265625 99.3125 -156.3125 99.40625 -156.40625 C 99.5 -156.507812 99.546875 -156.5625 99.546875 -156.5625 L 99.84375 -157.140625 C 99.84375 -157.140625 99.890625 -157.085938 99.984375 -156.984375 C 100.078125 -156.890625 100.125 -156.84375 100.125 -156.84375 L 100.703125 -156.5625 Z M 93.765625 -144.40625 C 93.765625 -144.019531 93.664062 -143.828125 93.46875 -143.828125 L 92.03125 -143.828125 C 92.03125 -144.597656 92.507812 -144.984375 93.46875 -144.984375 Z M 86.8125 -94.046875 C 87.195312 -93.660156 87.390625 -93.179688 87.390625 -92.609375 L 85.078125 -92.609375 C 85.078125 -92.609375 84.976562 -92.941406 84.78125 -93.609375 C 84.59375 -94.285156 84.691406 -95.109375 85.078125 -96.078125 L 86.8125 -96.078125 C 87.007812 -95.878906 87.109375 -95.394531 87.109375 -94.625 Z M 74.375 -94.046875 L 74.375 -95.203125 L 76.984375 -95.203125 L 76.984375 -94.046875 Z M 90.296875 -92.3125 L 89.71875 -92.03125 L 89.71875 -91.734375 L 87.390625 -90.578125 C 86.617188 -91.734375 86.234375 -92.3125 86.234375 -92.3125 C 86.617188 -92.507812 87.195312 -92.609375 87.96875 -92.609375 L 89.125 -92.609375 Z M 82.1875 -82.46875 C 82.570312 -82.082031 82.765625 -81.695312 82.765625 -81.3125 L 82.1875 -81.03125 L 81.609375 -81.3125 L 81.03125 -81.3125 L 81.03125 -83.34375 L 81.609375 -82.765625 Z M 97.8125 -78.140625 L 97.234375 -77.84375 L 95.5 -77.84375 C 95.5 -78.613281 96.078125 -79.289062 97.234375 -79.875 L 98.390625 -78.71875 L 98.390625 -78.140625 Z M 93.46875 -73.5 L 93.46875 -74.375 L 96.078125 -74.078125 L 96.078125 -72.921875 Z M 109.390625 -68 C 109.578125 -68 109.671875 -67.804688 109.671875 -67.421875 C 109.671875 -66.265625 109.09375 -65.6875 107.9375 -65.6875 C 106.78125 -65.6875 106.007812 -66.171875 105.625 -67.140625 L 106.203125 -68.578125 L 108.8125 -68.578125 C 108.8125 -68.390625 108.90625 -68.296875 109.09375 -68.296875 Z M 96.359375 -66.84375 L 95.203125 -67.421875 L 96.078125 -68.296875 L 97.234375 -68 Z M 100.703125 -59.90625 C 100.703125 -59.519531 100.992188 -59.328125 101.578125 -59.328125 C 101.578125 -58.941406 101.476562 -58.75 101.28125 -58.75 L 101.28125 -58.171875 C 101.09375 -58.171875 101 -58.070312 101 -57.875 L 98.96875 -57.875 L 98.6875 -58.171875 L 98.390625 -58.171875 L 97.8125 -58.453125 L 98.390625 -60.484375 L 99.546875 -60.484375 Z M 112.578125 -59.03125 L 113.4375 -58.75 L 112.578125 -58.171875 L 112 -57.875 C 111.414062 -57.300781 110.929688 -57.015625 110.546875 -57.015625 L 110.546875 -58.171875 C 110.347656 -58.554688 110.445312 -58.941406 110.84375 -59.328125 L 112 -59.328125 Z M 103.609375 -53.828125 C 102.828125 -53.828125 102.195312 -54.019531 101.71875 -54.40625 C 101.238281 -54.789062 101.09375 -55.273438 101.28125 -55.859375 C 101.476562 -55.859375 101.769531 -55.90625 102.15625 -56 C 102.539062 -56.09375 103.117188 -56.140625 103.890625 -56.140625 L 104.46875 -56.4375 C 104.664062 -56.625 105.050781 -56.71875 105.625 -56.71875 L 105.921875 -55.28125 L 104.765625 -54.40625 Z M 102.15625 -49.203125 C 103.695312 -47.648438 104.46875 -46.78125 104.46875 -46.59375 C 104.46875 -46.207031 104.375 -45.914062 104.1875 -45.71875 L 104.1875 -45.140625 L 103.609375 -45.140625 L 103.015625 -44.859375 L 102.15625 -44.859375 C 101.570312 -44.859375 101.085938 -45.050781 100.703125 -45.4375 L 99.84375 -45.4375 C 99.84375 -45.4375 99.503906 -45.484375 98.828125 -45.578125 C 98.148438 -45.671875 97.234375 -45.816406 96.078125 -46.015625 C 95.691406 -46.398438 95.5 -46.6875 95.5 -46.875 L 95.203125 -47.171875 L 95.203125 -48.328125 L 96.078125 -48.328125 C 97.046875 -48.328125 97.816406 -48.226562 98.390625 -48.03125 C 98.773438 -47.84375 99.257812 -47.75 99.84375 -47.75 L 100.125 -47.75 C 100.507812 -47.75 100.800781 -47.84375 101 -48.03125 L 101.578125 -48.328125 C 101.578125 -48.523438 101.769531 -48.816406 102.15625 -49.203125 Z M 110.84375 -46.875 L 110.84375 -46.296875 L 108.515625 -46.296875 C 109.097656 -46.878906 109.390625 -47.457031 109.390625 -48.03125 L 111.421875 -48.03125 Z M 107.65625 -44.28125 L 107.65625 -46.015625 L 109.09375 -46.015625 L 109.09375 -44.28125 Z M 101.28125 -42.828125 C 101.28125 -42.441406 100.800781 -41.960938 99.84375 -41.390625 L 97.8125 -40.21875 L 96.65625 -40.21875 C 95.5 -40.21875 94.726562 -40.410156 94.34375 -40.796875 L 94.34375 -41.390625 C 94.34375 -41.960938 94.921875 -42.539062 96.078125 -43.125 C 96.660156 -43.125 97.046875 -43.21875 97.234375 -43.40625 C 98.203125 -43.988281 98.585938 -44.179688 98.390625 -43.984375 L 101.28125 -43.984375 Z M 109.671875 -40.796875 C 110.253906 -40.222656 110.546875 -39.835938 110.546875 -39.640625 C 110.546875 -38.679688 110.0625 -38.203125 109.09375 -38.203125 L 107.9375 -37.328125 C 107.164062 -38.296875 106.78125 -39.066406 106.78125 -39.640625 C 106.78125 -40.804688 107.265625 -41.484375 108.234375 -41.671875 Z M 101.578125 -38.484375 C 100.609375 -38.296875 99.546875 -38.296875 98.390625 -38.484375 L 98.390625 -39.640625 L 99.546875 -40.515625 L 101.28125 -40.515625 C 101.476562 -40.515625 101.578125 -40.222656 101.578125 -39.640625 Z M 42.546875 -38.203125 L 42.546875 -39.0625 L 44.28125 -39.0625 L 44.28125 -38.203125 Z M 95.5 -34.4375 L 94.921875 -33.859375 L 94.34375 -33.859375 C 94.34375 -33.660156 94.148438 -33.5625 93.765625 -33.5625 L 93.765625 -34.734375 C 93.765625 -35.117188 93.957031 -35.503906 94.34375 -35.890625 C 94.53125 -35.890625 94.671875 -35.835938 94.765625 -35.734375 C 94.867188 -35.640625 94.921875 -35.59375 94.921875 -35.59375 L 95.203125 -35.015625 Z M 85.65625 -30.96875 C 86.039062 -30.769531 86.234375 -30.191406 86.234375 -29.234375 C 85.460938 -29.234375 84.691406 -29.425781 83.921875 -29.8125 C 84.117188 -29.8125 84.265625 -29.859375 84.359375 -29.953125 C 84.453125 -30.046875 84.5 -30.09375 84.5 -30.09375 C 84.5 -30.289062 84.691406 -30.390625 85.078125 -30.390625 L 85.078125 -30.671875 C 85.078125 -30.867188 85.269531 -30.96875 85.65625 -30.96875 Z M 101.578125 -30.390625 C 101.765625 -30.191406 101.859375 -29.898438 101.859375 -29.515625 C 101.285156 -29.515625 100.128906 -29.804688 98.390625 -30.390625 L 101.578125 -30.96875 Z M 48.328125 -29.234375 L 47.171875 -29.8125 L 48.03125 -30.671875 L 49.203125 -30.390625 Z M 87.390625 -27.484375 C 88.160156 -27.484375 88.644531 -27.390625 88.84375 -27.203125 L 90.296875 -26.90625 C 90.296875 -25.945312 89.519531 -25.46875 87.96875 -25.46875 C 87.96875 -25.65625 87.582031 -25.75 86.8125 -25.75 Z M 81.609375 -25.46875 L 81.609375 -26.90625 L 82.765625 -26.90625 L 82.765625 -25.46875 Z M 55.28125 -20.25 L 55.28125 -21.125 L 57.296875 -21.125 L 57.296875 -20.25 Z M 86.8125 -19.390625 C 86.425781 -19.578125 86.234375 -19.863281 86.234375 -20.25 C 86.234375 -20.832031 86.425781 -21.125 86.8125 -21.125 L 89.125 -21.125 Z M 86.8125 -19.390625 "/></g></g></g><g fill="#000000" fill-opacity="1"><g transform="translate(189.800174, 288.101505)"><g><path d="M 127.328125 -107.359375 C 134.078125 -114.503906 138.707031 -122.515625 141.21875 -131.390625 L 141.515625 -131.671875 L 141.515625 -131.96875 C 143.054688 -138.71875 143.828125 -145.375 143.828125 -151.9375 C 143.828125 -161 142.1875 -168.425781 138.90625 -174.21875 C 132.34375 -185.976562 121.734375 -193.597656 107.078125 -197.078125 C 103.023438 -198.035156 97.910156 -198.515625 91.734375 -198.515625 C 85.554688 -198.515625 79.09375 -198.035156 72.34375 -197.078125 L 16.78125 -190.703125 C 13.695312 -190.515625 11.960938 -188.78125 11.578125 -185.5 L -2.890625 -6.359375 C -2.890625 -4.429688 -2.3125 -2.890625 -1.15625 -1.734375 C 0 -0.578125 1.347656 0 2.890625 0 L 69.453125 0 C 84.117188 0 95.984375 -1.925781 105.046875 -5.78125 C 115.078125 -9.644531 123.082031 -16.59375 129.0625 -26.625 C 135.050781 -36.65625 138.046875 -47.265625 138.046875 -58.453125 C 138.046875 -68.097656 136.597656 -76.007812 133.703125 -82.1875 C 130.804688 -88.363281 126.175781 -94.148438 119.8125 -99.546875 Z M 120.671875 -178.265625 L 120.09375 -177.109375 L 119.515625 -177.109375 L 119.8125 -178.265625 Z M 78.421875 -172.484375 L 76.984375 -173.0625 C 76.210938 -173.445312 75.628906 -173.640625 75.234375 -173.640625 L 76.40625 -174.5 L 77.84375 -175.375 L 79.875 -173.640625 L 79.875 -173.0625 L 79.296875 -172.484375 Z M 78.71875 -163.5 C 78.519531 -163.3125 78.226562 -163.21875 77.84375 -163.21875 L 77.5625 -163.796875 C 77.363281 -163.984375 77.265625 -164.269531 77.265625 -164.65625 L 77.5625 -166.109375 L 79.296875 -168.140625 C 79.296875 -167.753906 79.195312 -167.460938 79 -167.265625 L 78.71875 -166.6875 C 78.332031 -166.300781 78.332031 -165.816406 78.71875 -165.234375 C 79.101562 -164.847656 79.296875 -164.367188 79.296875 -163.796875 Z M 86.234375 -164.078125 L 86.8125 -164.078125 L 86.8125 -162.921875 L 86.234375 -162.921875 Z M 100.703125 -157.71875 L 101.28125 -158.875 L 101.859375 -158.875 L 101.28125 -157.421875 Z M 61.921875 -149.03125 C 69.640625 -150.382812 75.429688 -151.0625 79.296875 -151.0625 C 81.992188 -151.0625 84.304688 -150.382812 86.234375 -149.03125 C 87.585938 -148.257812 88.265625 -146.425781 88.265625 -143.53125 C 88.265625 -141.800781 87.972656 -139.488281 87.390625 -136.59375 C 86.234375 -132.34375 83.921875 -129.253906 80.453125 -127.328125 C 74.273438 -123.660156 64.820312 -120.578125 52.09375 -118.078125 L 54.6875 -148.171875 Z M 104.1875 -138.046875 C 104.1875 -137.460938 103.992188 -136.976562 103.609375 -136.59375 L 103.015625 -136.875 C 103.015625 -137.257812 103.40625 -137.648438 104.1875 -138.046875 Z M 51.21875 -134.859375 C 51.21875 -133.890625 50.640625 -133.117188 49.484375 -132.546875 L 50.0625 -131.390625 L 50.9375 -130.515625 C 50.9375 -130.515625 50.984375 -130.460938 51.078125 -130.359375 C 51.171875 -130.265625 51.21875 -130.21875 51.21875 -130.21875 L 50.640625 -129.0625 L 48.90625 -129.0625 C 48.320312 -129.0625 48.03125 -129.351562 48.03125 -129.9375 L 47.453125 -131.09375 C 48.617188 -131.863281 49.007812 -132.441406 48.625 -132.828125 L 47.75 -132.828125 L 47.453125 -133.125 L 47.171875 -133.125 C 47.171875 -133.507812 47.363281 -133.703125 47.75 -133.703125 L 48.328125 -133.703125 L 48.03125 -134.28125 C 48.03125 -134.28125 47.984375 -134.375 47.890625 -134.5625 C 47.796875 -134.757812 47.648438 -134.859375 47.453125 -134.859375 L 47.453125 -135.71875 C 47.453125 -135.914062 47.550781 -136.015625 47.75 -136.015625 L 47.75 -136.59375 L 48.328125 -136.59375 L 49.203125 -137.171875 C 49.585938 -136.785156 49.78125 -136.59375 49.78125 -136.59375 L 50.9375 -135.4375 Z M 130.21875 -126.171875 C 129.832031 -125.785156 129.546875 -125.59375 129.359375 -125.59375 C 128.972656 -125.59375 128.78125 -125.5 128.78125 -125.3125 C 128.582031 -125.3125 128.335938 -125.40625 128.046875 -125.59375 C 127.765625 -125.789062 127.625 -126.082031 127.625 -126.46875 C 127.625 -127.039062 128.007812 -127.328125 128.78125 -127.328125 L 129.359375 -127.328125 L 130.21875 -127.046875 Z M 48.90625 -125.3125 C 49.101562 -125.113281 49.488281 -124.820312 50.0625 -124.4375 L 50.359375 -123.28125 L 47.171875 -123.28125 L 47.75 -124.4375 L 48.328125 -124.734375 Z M 87.96875 -122.703125 C 88.351562 -123.085938 88.546875 -123.765625 88.546875 -124.734375 L 91.15625 -124.734375 L 91.15625 -123.859375 L 91.453125 -123.28125 L 91.453125 -122.703125 Z M 83.921875 -122.703125 C 83.921875 -122.117188 84.304688 -121.828125 85.078125 -121.828125 C 83.535156 -120.867188 82.1875 -120.867188 81.03125 -121.828125 L 82.765625 -122.125 C 83.347656 -122.507812 83.78125 -122.796875 84.0625 -122.984375 C 84.351562 -123.179688 84.304688 -123.085938 83.921875 -122.703125 Z M 49.203125 -121.828125 C 49.203125 -121.640625 49.296875 -121.546875 49.484375 -121.546875 L 49.484375 -121.25 L 47.75 -120.390625 C 46.976562 -120.578125 46.207031 -121.25 45.4375 -122.40625 L 47.75 -122.703125 L 48.328125 -122.40625 L 48.90625 -122.40625 L 49.203125 -122.125 Z M 89.71875 -121.25 C 89.71875 -121.25 89.765625 -121.203125 89.859375 -121.109375 C 89.953125 -121.015625 90 -120.96875 90 -120.96875 L 90 -120.390625 L 88.84375 -120.390625 C 88.257812 -120.390625 87.773438 -120.484375 87.390625 -120.671875 C 87.390625 -120.867188 87.628906 -121.109375 88.109375 -121.390625 C 88.597656 -121.679688 89.132812 -121.828125 89.71875 -121.828125 Z M 94.921875 -116.046875 C 94.335938 -115.460938 93.757812 -115.171875 93.1875 -115.171875 C 92.800781 -115.171875 92.222656 -114.976562 91.453125 -114.59375 C 91.453125 -114.976562 91.351562 -115.269531 91.15625 -115.46875 L 90.578125 -115.75 L 90 -116.328125 L 90.578125 -116.90625 L 91.453125 -118.078125 C 92.410156 -118.648438 92.988281 -119.226562 93.1875 -119.8125 Z M 76.40625 -118.65625 L 76.40625 -119.515625 L 78.71875 -119.234375 L 78.71875 -118.078125 Z M 35.890625 -116.046875 C 35.691406 -116.234375 35.304688 -116.328125 34.734375 -116.328125 L 34.140625 -116.625 L 32.40625 -117.203125 C 32.40625 -117.785156 33.179688 -118.363281 34.734375 -118.9375 L 35.890625 -118.078125 Z M 77.5625 -117.78125 C 78.332031 -117.195312 78.332031 -116.519531 77.5625 -115.75 L 76.984375 -115.75 L 76.40625 -116.046875 C 76.40625 -116.046875 76.351562 -116.09375 76.25 -116.1875 C 76.15625 -116.28125 76.109375 -116.328125 76.109375 -116.328125 L 76.40625 -116.90625 L 76.984375 -117.5 Z M 29.8125 -115.171875 C 29.226562 -115.171875 28.742188 -115.269531 28.359375 -115.46875 L 28.9375 -117.203125 C 29.132812 -117.203125 29.328125 -117.148438 29.515625 -117.046875 C 29.710938 -116.953125 29.90625 -116.90625 30.09375 -116.90625 L 31.25 -116.90625 L 31.25 -115.171875 Z M 44.5625 -115.46875 C 44.5625 -115.65625 44.707031 -115.796875 45 -115.890625 C 45.289062 -115.992188 45.53125 -116.140625 45.71875 -116.328125 L 45.71875 -115.171875 C 45.71875 -114.597656 45.625 -114.117188 45.4375 -113.734375 L 43.984375 -114.59375 C 43.984375 -114.789062 44.175781 -115.082031 44.5625 -115.46875 Z M 116.625 -114.890625 C 116.8125 -115.078125 117.195312 -115.265625 117.78125 -115.453125 C 118.363281 -115.648438 118.941406 -115.75 119.515625 -115.75 L 120.671875 -115.75 L 121.546875 -115.46875 L 120.390625 -114.3125 Z M 115.46875 -114.3125 L 114.890625 -114.015625 L 114.59375 -114.890625 L 115.171875 -114.890625 Z M 91.15625 -111.703125 L 91.15625 -113.4375 L 92.609375 -113.4375 L 92.609375 -111.703125 Z M 87.96875 -111.703125 C 89.320312 -111.128906 90 -110.359375 90 -109.390625 L 87.390625 -109.390625 C 87.773438 -110.160156 87.96875 -110.929688 87.96875 -111.703125 Z M 118.078125 -111.125 L 116.90625 -110.546875 L 116.90625 -111.125 L 117.78125 -111.421875 Z M 76.109375 -101 C 75.722656 -100.613281 75.238281 -100.707031 74.65625 -101.28125 L 74.375 -102.15625 C 74.375 -102.925781 74.757812 -103.3125 75.53125 -103.3125 C 76.113281 -103.3125 76.597656 -103.210938 76.984375 -103.015625 L 76.984375 -101 Z M 95.78125 -98.96875 L 95.78125 -100.125 C 95.976562 -100.125 96.078125 -100.222656 96.078125 -100.421875 L 97.8125 -100.421875 L 97.234375 -98.96875 Z M 78.140625 -78.421875 C 77.171875 -78.421875 76.492188 -78.90625 76.109375 -79.875 C 76.878906 -79.875 77.457031 -79.773438 77.84375 -79.578125 C 78.039062 -79.390625 78.140625 -79.003906 78.140625 -78.421875 Z M 61.34375 -76.40625 L 61.640625 -76.6875 C 65.878906 -77.65625 69.445312 -78.140625 72.34375 -78.140625 C 74.46875 -78.140625 76.109375 -77.847656 77.265625 -77.265625 C 80.734375 -75.140625 82.46875 -72.050781 82.46875 -68 C 82.46875 -65.5 81.789062 -62.992188 80.4375 -60.484375 C 79.09375 -57.972656 77.457031 -55.945312 75.53125 -54.40625 C 72.0625 -51.707031 68.347656 -49.632812 64.390625 -48.1875 C 60.429688 -46.738281 55.367188 -45.722656 49.203125 -45.140625 L 50.359375 -74.078125 Z M 90.578125 -78.140625 L 91.15625 -78.140625 L 91.15625 -76.6875 L 90.578125 -76.6875 Z M 26.90625 -73.5 C 26.90625 -72.925781 26.617188 -72.445312 26.046875 -72.0625 L 26.046875 -74.65625 C 26.617188 -74.082031 26.90625 -73.695312 26.90625 -73.5 Z M 27.484375 -69.75 C 27.484375 -69.75 27.4375 -69.695312 27.34375 -69.59375 C 27.25 -69.5 27.203125 -69.453125 27.203125 -69.453125 C 26.234375 -68.867188 25.847656 -68.191406 26.046875 -67.421875 C 26.234375 -67.234375 26.28125 -67.039062 26.1875 -66.84375 C 26.09375 -66.65625 26.046875 -66.460938 26.046875 -66.265625 C 25.847656 -66.460938 25.460938 -66.5625 24.890625 -66.5625 L 24.890625 -67.421875 C 25.660156 -68.003906 26.046875 -68.585938 26.046875 -69.171875 C 25.460938 -69.742188 25.75 -70.222656 26.90625 -70.609375 L 27.203125 -70.609375 L 27.203125 -70.03125 C 27.390625 -70.03125 27.484375 -69.9375 27.484375 -69.75 Z M 26.90625 -63.375 C 26.90625 -62.988281 26.757812 -62.359375 26.46875 -61.484375 C 26.1875 -60.617188 25.851562 -59.992188 25.46875 -59.609375 C 25.46875 -59.609375 25.753906 -59.320312 26.328125 -58.75 C 26.328125 -58.75 26.375 -58.695312 26.46875 -58.59375 C 26.570312 -58.5 26.625 -58.453125 26.625 -58.453125 L 26.046875 -58.171875 C 25.847656 -58.359375 25.460938 -58.453125 24.890625 -58.453125 L 24.890625 -61.921875 C 24.503906 -63.085938 24.503906 -64.148438 24.890625 -65.109375 L 26.046875 -65.109375 C 26.046875 -64.921875 26.238281 -64.632812 26.625 -64.25 Z M 37.90625 -63.671875 C 38.101562 -63.472656 38.148438 -63.273438 38.046875 -63.078125 C 37.953125 -62.890625 37.90625 -62.703125 37.90625 -62.515625 L 37.625 -63.09375 C 37.625 -63.476562 37.523438 -63.765625 37.328125 -63.953125 C 37.328125 -64.335938 37.519531 -64.628906 37.90625 -64.828125 Z M 26.046875 -53.25 C 26.046875 -53.4375 25.945312 -53.578125 25.75 -53.671875 C 25.5625 -53.773438 25.46875 -53.828125 25.46875 -53.828125 C 25.269531 -53.828125 25.125 -53.921875 25.03125 -54.109375 C 24.9375 -54.304688 24.890625 -54.40625 24.890625 -54.40625 L 26.046875 -54.40625 Z M 26.328125 -41.09375 C 26.140625 -40.707031 26.046875 -39.9375 26.046875 -38.78125 C 25.273438 -38.78125 24.789062 -38.585938 24.59375 -38.203125 C 24.976562 -37.816406 25.269531 -37.625 25.46875 -37.625 C 25.851562 -37.625 26.046875 -37.429688 26.046875 -37.046875 C 25.847656 -37.046875 25.75 -36.945312 25.75 -36.75 L 25.46875 -36.46875 L 24.3125 -37.625 C 23.726562 -38.007812 23.4375 -38.296875 23.4375 -38.484375 L 23.734375 -39.640625 L 24.015625 -40.515625 L 24.890625 -40.515625 L 25.75 -40.796875 C 25.363281 -41.191406 24.882812 -41.390625 24.3125 -41.390625 C 23.925781 -43.316406 23.734375 -45.335938 23.734375 -47.453125 C 23.734375 -47.835938 24.117188 -48.03125 24.890625 -48.03125 C 25.460938 -48.425781 25.75 -48.816406 25.75 -49.203125 L 25.75 -50.0625 C 25.75 -50.644531 25.847656 -51.03125 26.046875 -51.21875 L 26.328125 -46.296875 C 25.753906 -46.296875 25.273438 -46.007812 24.890625 -45.4375 C 25.078125 -45.238281 25.363281 -44.992188 25.75 -44.703125 C 26.132812 -44.421875 26.375 -44.132812 26.46875 -43.84375 C 26.570312 -43.550781 26.625 -43.210938 26.625 -42.828125 Z M 75.53125 -42.828125 C 75.144531 -42.441406 74.566406 -42.25 73.796875 -42.25 L 72.921875 -43.125 L 75.234375 -44.28125 Z M 23.734375 -35.015625 L 23.734375 -35.890625 L 24.015625 -36.171875 L 24.890625 -36.171875 L 26.046875 -35.890625 L 26.046875 -34.140625 L 25.171875 -34.140625 Z M 36.75 -15.921875 C 36.75 -15.921875 36.703125 -15.96875 36.609375 -16.0625 C 36.515625 -16.15625 36.46875 -16.203125 36.46875 -16.203125 L 36.46875 -16.78125 C 36.46875 -17.363281 36.660156 -17.988281 37.046875 -18.65625 C 37.429688 -19.332031 37.816406 -19.863281 38.203125 -20.25 L 38.203125 -21.421875 L 37.90625 -22.578125 L 38.203125 -22.859375 C 38.203125 -23.054688 38.296875 -23.15625 38.484375 -23.15625 C 37.910156 -24.695312 38.007812 -26.046875 38.78125 -27.203125 C 39.550781 -28.742188 39.9375 -30.578125 39.9375 -32.703125 L 40.515625 -34.4375 C 40.898438 -35.207031 41.285156 -35.785156 41.671875 -36.171875 L 41.671875 -15.921875 Z M 24.59375 -29.515625 L 24.015625 -29.515625 L 24.015625 -30.671875 L 24.59375 -30.671875 Z M 24.59375 -26.90625 L 24.015625 -26.90625 L 24.015625 -27.78125 L 24.59375 -27.78125 Z M 24.3125 -21.703125 C 23.539062 -21.515625 22.863281 -21.515625 22.28125 -21.703125 L 22.28125 -22.859375 L 24.3125 -22.859375 Z M 35.3125 -17.9375 C 35.3125 -17.550781 35.113281 -17.164062 34.71875 -16.78125 C 34.332031 -16.394531 34.140625 -16.007812 34.140625 -15.625 C 34.335938 -15.4375 34.4375 -15.050781 34.4375 -14.46875 C 34.4375 -13.695312 34.050781 -12.925781 33.28125 -12.15625 L 32.703125 -11.859375 L 32.40625 -11.859375 C 32.21875 -12.054688 32.125 -12.632812 32.125 -13.59375 C 32.125 -14.757812 32.316406 -15.34375 32.703125 -15.34375 C 33.085938 -15.34375 33.664062 -16.304688 34.4375 -18.234375 C 34.632812 -18.234375 34.734375 -18.132812 34.734375 -17.9375 Z M 35.3125 -17.9375 "/></g></g></g></svg>