<svg xmlns="http://www.w3.org/2000/svg" xmlns:xlink="http://www.w3.org/1999/xlink" width="500" zoomAndPan="magnify" viewBox="0 0 375 374.999991" height="500" preserveAspectRatio="xMidYMid meet" version="1.0"><defs><g/><clipPath id="7c7bb6f066"><path d="M 1.222656 0 L 375 0 L 375 375 L 1.222656 375 Z M 1.222656 0 " clip-rule="nonzero"/></clipPath><clipPath id="c65f192f54"><path d="M 188.722656 0 C 85.171875 0 1.222656 83.945312 1.222656 187.5 C 1.222656 291.054688 85.171875 375 188.722656 375 C 292.277344 375 376.222656 291.054688 376.222656 187.5 C 376.222656 83.945312 292.277344 0 188.722656 0 Z M 188.722656 0 " clip-rule="nonzero"/></clipPath></defs><g clip-path="url(#7c7bb6f066)"><g clip-path="url(#c65f192f54)"><path fill="#000000" d="M 1.222656 0 L 376.222656 0 L 376.222656 375 L 1.222656 375 Z M 1.222656 0 " fill-opacity="1" fill-rule="nonzero"/></g></g><g fill="#ffffff" fill-opacity="1"><g transform="translate(49.986564, 289.137329)"><g><path d="M 45.890625 -41.53125 C 36.984375 -44.820312 27.882812 -49.273438 18.59375 -54.890625 C 17.625 -55.472656 16.65625 -55.765625 15.6875 -55.765625 C 13.164062 -55.765625 11.421875 -54.601562 10.453125 -52.28125 L -2.328125 -26.71875 C -2.898438 -25.550781 -3.1875 -24.488281 -3.1875 -23.53125 C -3.1875 -21.59375 -2.125 -20.039062 0 -18.875 C 19.550781 -8.226562 35.816406 -2.226562 48.796875 -0.875 C 54.210938 -0.488281 58.273438 -0.296875 60.984375 -0.296875 C 72.597656 -0.296875 83.148438 -2.132812 92.640625 -5.8125 C 101.546875 -9.289062 108.707031 -15 114.125 -22.9375 C 119.550781 -30.875 123.332031 -40.363281 125.46875 -51.40625 L 125.46875 -51.6875 C 125.65625 -53.050781 125.75 -55.179688 125.75 -58.078125 C 125.75 -79.578125 113.742188 -97.585938 89.734375 -112.109375 L 80.734375 -117.625 C 76.285156 -120.332031 72.414062 -123.332031 69.125 -126.625 C 63.695312 -131.46875 60.984375 -137.082031 60.984375 -143.46875 C 60.984375 -147.34375 61.953125 -151.117188 63.890625 -154.796875 C 66.210938 -160.796875 70.179688 -163.3125 75.796875 -162.34375 L 76.09375 -162.34375 C 78.21875 -162.15625 79.570312 -160.316406 80.15625 -156.828125 C 80.738281 -149.660156 81.03125 -142.785156 81.03125 -136.203125 C 81.03125 -132.335938 82.96875 -130.40625 86.84375 -130.40625 L 120.53125 -130.40625 C 124.394531 -130.40625 126.328125 -132.242188 126.328125 -135.921875 C 126.722656 -142.117188 126.921875 -147.441406 126.921875 -151.890625 C 126.921875 -155.765625 126.722656 -159.25 126.328125 -162.34375 C 125.554688 -171.832031 123.039062 -179.285156 118.78125 -184.703125 C 110.257812 -195.160156 96.898438 -200.390625 78.703125 -200.390625 C 73.671875 -200.390625 68.832031 -200.097656 64.1875 -199.515625 C 42.882812 -197.003906 27.394531 -187.226562 17.71875 -170.1875 C 10.75 -158.570312 7.265625 -146.566406 7.265625 -134.171875 C 7.265625 -129.140625 7.84375 -124.007812 9 -118.78125 C 10.9375 -110.644531 14.519531 -104.160156 19.75 -99.328125 C 19.75 -99.328125 19.796875 -99.273438 19.890625 -99.171875 C 19.992188 -99.078125 20.046875 -99.03125 20.046875 -99.03125 C 29.523438 -91.09375 35.234375 -86.640625 37.171875 -85.671875 L 37.75 -85.390625 L 43.5625 -81.90625 C 53.4375 -75.894531 59.828125 -71.726562 62.734375 -69.40625 C 68.734375 -64.957031 71.734375 -59.34375 71.734375 -52.5625 C 71.734375 -48.300781 70.425781 -45.007812 67.8125 -42.6875 C 65.195312 -40.363281 61.757812 -39.203125 57.5 -39.203125 C 54.019531 -39.203125 50.148438 -39.976562 45.890625 -41.53125 Z M 92.9375 -166.40625 L 94.09375 -166.40625 L 94.09375 -165.828125 L 92.9375 -165.828125 Z M 100.484375 -156.53125 C 100.296875 -156.34375 100.054688 -156.25 99.765625 -156.25 C 99.472656 -156.25 99.421875 -156.441406 99.609375 -156.828125 C 99.609375 -156.828125 99.65625 -156.875 99.75 -156.96875 C 99.851562 -157.070312 99.90625 -157.125 99.90625 -157.125 L 100.203125 -157.703125 C 100.203125 -157.703125 100.25 -157.648438 100.34375 -157.546875 C 100.4375 -157.453125 100.484375 -157.40625 100.484375 -157.40625 L 101.0625 -157.125 Z M 94.09375 -144.921875 C 94.09375 -144.535156 94 -144.34375 93.8125 -144.34375 L 92.359375 -144.34375 C 92.359375 -145.113281 92.84375 -145.5 93.8125 -145.5 Z M 87.125 -94.390625 C 87.507812 -94.003906 87.703125 -93.519531 87.703125 -92.9375 L 85.390625 -92.9375 C 85.390625 -92.9375 85.289062 -93.273438 85.09375 -93.953125 C 84.894531 -94.628906 84.992188 -95.453125 85.390625 -96.421875 L 87.125 -96.421875 C 87.320312 -96.222656 87.421875 -95.738281 87.421875 -94.96875 Z M 74.640625 -94.390625 L 74.640625 -95.546875 L 77.25 -95.546875 L 77.25 -94.390625 Z M 90.609375 -92.640625 L 90.03125 -92.359375 L 90.03125 -92.0625 L 87.703125 -90.90625 C 86.929688 -92.0625 86.546875 -92.640625 86.546875 -92.640625 C 86.929688 -92.835938 87.507812 -92.9375 88.28125 -92.9375 L 89.453125 -92.9375 Z M 82.484375 -82.765625 C 82.867188 -82.378906 83.0625 -81.992188 83.0625 -81.609375 L 82.484375 -81.3125 L 81.90625 -81.609375 L 81.3125 -81.609375 L 81.3125 -83.640625 L 81.90625 -83.0625 Z M 98.15625 -78.40625 L 97.578125 -78.125 L 95.84375 -78.125 C 95.84375 -78.894531 96.421875 -79.570312 97.578125 -80.15625 L 98.75 -79 L 98.75 -78.40625 Z M 93.8125 -73.765625 L 93.8125 -74.640625 L 96.421875 -74.34375 L 96.421875 -73.1875 Z M 109.78125 -68.25 C 109.96875 -68.25 110.0625 -68.054688 110.0625 -67.671875 C 110.0625 -66.503906 109.484375 -65.921875 108.328125 -65.921875 C 107.160156 -65.921875 106.382812 -66.40625 106 -67.375 L 106.578125 -68.828125 L 109.203125 -68.828125 C 109.203125 -68.640625 109.296875 -68.546875 109.484375 -68.546875 Z M 96.703125 -67.09375 L 95.546875 -67.671875 L 96.421875 -68.546875 L 97.578125 -68.25 Z M 101.0625 -60.125 C 101.0625 -59.726562 101.351562 -59.53125 101.9375 -59.53125 C 101.9375 -59.144531 101.835938 -58.953125 101.640625 -58.953125 L 101.640625 -58.375 C 101.453125 -58.375 101.359375 -58.273438 101.359375 -58.078125 L 99.328125 -58.078125 L 99.03125 -58.375 L 98.75 -58.375 L 98.15625 -58.671875 L 98.75 -60.703125 L 99.90625 -60.703125 Z M 112.96875 -59.25 L 113.84375 -58.953125 L 112.96875 -58.375 L 112.390625 -58.078125 C 111.804688 -57.503906 111.320312 -57.21875 110.9375 -57.21875 L 110.9375 -58.375 C 110.75 -58.757812 110.847656 -59.144531 111.234375 -59.53125 L 112.390625 -59.53125 Z M 103.96875 -54.015625 C 103.195312 -54.015625 102.566406 -54.207031 102.078125 -54.59375 C 101.597656 -54.988281 101.453125 -55.472656 101.640625 -56.046875 C 101.835938 -56.046875 102.128906 -56.09375 102.515625 -56.1875 C 102.898438 -56.289062 103.484375 -56.34375 104.265625 -56.34375 L 104.84375 -56.625 C 105.03125 -56.820312 105.414062 -56.921875 106 -56.921875 L 106.296875 -55.46875 L 105.125 -54.59375 Z M 102.515625 -49.375 C 104.066406 -47.820312 104.84375 -46.953125 104.84375 -46.765625 C 104.84375 -46.367188 104.742188 -46.078125 104.546875 -45.890625 L 104.546875 -45.3125 L 103.96875 -45.3125 L 103.390625 -45.015625 L 102.515625 -45.015625 C 101.929688 -45.015625 101.445312 -45.207031 101.0625 -45.59375 L 100.203125 -45.59375 C 100.203125 -45.59375 99.859375 -45.640625 99.171875 -45.734375 C 98.492188 -45.835938 97.578125 -45.984375 96.421875 -46.171875 C 96.035156 -46.566406 95.84375 -46.859375 95.84375 -47.046875 L 95.546875 -47.34375 L 95.546875 -48.5 L 96.421875 -48.5 C 97.390625 -48.5 98.164062 -48.398438 98.75 -48.203125 C 99.132812 -48.015625 99.617188 -47.921875 100.203125 -47.921875 L 100.484375 -47.921875 C 100.867188 -47.921875 101.160156 -48.015625 101.359375 -48.203125 L 101.9375 -48.5 C 101.9375 -48.695312 102.128906 -48.988281 102.515625 -49.375 Z M 111.234375 -47.046875 L 111.234375 -46.46875 L 108.90625 -46.46875 C 109.488281 -47.050781 109.78125 -47.628906 109.78125 -48.203125 L 111.8125 -48.203125 Z M 108.03125 -44.4375 L 108.03125 -46.171875 L 109.484375 -46.171875 L 109.484375 -44.4375 Z M 101.640625 -42.984375 C 101.640625 -42.597656 101.160156 -42.113281 100.203125 -41.53125 L 98.15625 -40.375 L 97 -40.375 C 95.84375 -40.375 95.066406 -40.566406 94.671875 -40.953125 L 94.671875 -41.53125 C 94.671875 -42.113281 95.253906 -42.691406 96.421875 -43.265625 C 97.003906 -43.265625 97.390625 -43.363281 97.578125 -43.5625 C 98.546875 -44.144531 98.9375 -44.335938 98.75 -44.140625 L 101.640625 -44.140625 Z M 110.0625 -40.953125 C 110.644531 -40.367188 110.9375 -39.976562 110.9375 -39.78125 C 110.9375 -38.8125 110.453125 -38.328125 109.484375 -38.328125 L 108.328125 -37.46875 C 107.554688 -38.4375 107.171875 -39.207031 107.171875 -39.78125 C 107.171875 -40.945312 107.65625 -41.628906 108.625 -41.828125 Z M 101.9375 -38.625 C 100.96875 -38.425781 99.90625 -38.425781 98.75 -38.625 L 98.75 -39.78125 L 99.90625 -40.65625 L 101.640625 -40.65625 C 101.835938 -40.65625 101.9375 -40.363281 101.9375 -39.78125 Z M 42.6875 -38.328125 L 42.6875 -39.203125 L 44.4375 -39.203125 L 44.4375 -38.328125 Z M 95.84375 -34.5625 L 95.265625 -33.984375 L 94.671875 -33.984375 C 94.671875 -33.785156 94.476562 -33.6875 94.09375 -33.6875 L 94.09375 -34.84375 C 94.09375 -35.238281 94.285156 -35.628906 94.671875 -36.015625 C 94.867188 -36.015625 95.015625 -35.960938 95.109375 -35.859375 C 95.210938 -35.765625 95.265625 -35.71875 95.265625 -35.71875 L 95.546875 -35.140625 Z M 85.96875 -31.078125 C 86.351562 -30.878906 86.546875 -30.296875 86.546875 -29.328125 C 85.773438 -29.328125 85 -29.519531 84.21875 -29.90625 C 84.414062 -29.90625 84.5625 -29.953125 84.65625 -30.046875 C 84.75 -30.148438 84.796875 -30.203125 84.796875 -30.203125 C 84.796875 -30.398438 84.992188 -30.5 85.390625 -30.5 L 85.390625 -30.78125 C 85.390625 -30.976562 85.582031 -31.078125 85.96875 -31.078125 Z M 101.9375 -30.5 C 102.132812 -30.300781 102.234375 -30.007812 102.234375 -29.625 C 101.648438 -29.625 100.488281 -29.914062 98.75 -30.5 L 101.9375 -31.078125 Z M 48.5 -29.328125 L 47.34375 -29.90625 L 48.203125 -30.78125 L 49.375 -30.5 Z M 87.703125 -27.59375 C 88.484375 -27.59375 88.96875 -27.492188 89.15625 -27.296875 L 90.609375 -27.015625 C 90.609375 -26.046875 89.832031 -25.5625 88.28125 -25.5625 C 88.28125 -25.75 87.894531 -25.84375 87.125 -25.84375 Z M 81.90625 -25.5625 L 81.90625 -27.015625 L 83.0625 -27.015625 L 83.0625 -25.5625 Z M 55.46875 -20.328125 L 55.46875 -21.203125 L 57.5 -21.203125 L 57.5 -20.328125 Z M 87.125 -19.453125 C 86.738281 -19.648438 86.546875 -19.941406 86.546875 -20.328125 C 86.546875 -20.910156 86.738281 -21.203125 87.125 -21.203125 L 89.453125 -21.203125 Z M 87.125 -19.453125 "/></g></g></g><g fill="#ffffff" fill-opacity="1"><g transform="translate(189.096341, 289.137329)"><g><path d="M 127.78125 -107.75 C 134.5625 -114.90625 139.207031 -122.941406 141.71875 -131.859375 L 142.015625 -132.140625 L 142.015625 -132.4375 C 143.566406 -139.207031 144.34375 -145.882812 144.34375 -152.46875 C 144.34375 -161.570312 142.695312 -169.023438 139.40625 -174.828125 C 132.820312 -186.640625 122.171875 -194.289062 107.453125 -197.78125 C 103.390625 -198.75 98.257812 -199.234375 92.0625 -199.234375 C 85.863281 -199.234375 79.378906 -198.75 72.609375 -197.78125 L 16.84375 -191.390625 C 13.75 -191.191406 12.003906 -189.445312 11.609375 -186.15625 L -2.90625 -6.390625 C -2.90625 -4.453125 -2.320312 -2.898438 -1.15625 -1.734375 C 0 -0.578125 1.351562 0 2.90625 0 L 69.703125 0 C 84.410156 0 96.316406 -1.9375 105.421875 -5.8125 C 115.492188 -9.675781 123.53125 -16.644531 129.53125 -26.71875 C 135.53125 -36.789062 138.53125 -47.441406 138.53125 -58.671875 C 138.53125 -68.347656 137.078125 -76.28125 134.171875 -82.46875 C 131.265625 -88.664062 126.617188 -94.476562 120.234375 -99.90625 Z M 121.109375 -178.90625 L 120.53125 -177.734375 L 119.9375 -177.734375 L 120.234375 -178.90625 Z M 78.703125 -173.09375 L 77.25 -173.671875 C 76.476562 -174.054688 75.898438 -174.25 75.515625 -174.25 L 76.671875 -175.125 L 78.125 -176 L 80.15625 -174.25 L 80.15625 -173.671875 L 79.578125 -173.09375 Z M 79 -164.09375 C 78.800781 -163.894531 78.507812 -163.796875 78.125 -163.796875 L 77.828125 -164.375 C 77.640625 -164.570312 77.546875 -164.863281 77.546875 -165.25 L 77.828125 -166.703125 L 79.578125 -168.734375 C 79.578125 -168.347656 79.476562 -168.054688 79.28125 -167.859375 L 79 -167.28125 C 78.601562 -166.894531 78.601562 -166.410156 79 -165.828125 C 79.382812 -165.441406 79.578125 -164.957031 79.578125 -164.375 Z M 86.546875 -164.671875 L 87.125 -164.671875 L 87.125 -163.5 L 86.546875 -163.5 Z M 101.0625 -158.28125 L 101.640625 -159.4375 L 102.234375 -159.4375 L 101.640625 -157.984375 Z M 62.15625 -149.5625 C 69.894531 -150.914062 75.703125 -151.59375 79.578125 -151.59375 C 82.285156 -151.59375 84.609375 -150.914062 86.546875 -149.5625 C 87.898438 -148.789062 88.578125 -146.953125 88.578125 -144.046875 C 88.578125 -142.304688 88.285156 -139.984375 87.703125 -137.078125 C 86.546875 -132.816406 84.222656 -129.71875 80.734375 -127.78125 C 74.535156 -124.101562 65.050781 -121.003906 52.28125 -118.484375 L 54.890625 -148.703125 Z M 104.546875 -138.53125 C 104.546875 -137.945312 104.351562 -137.460938 103.96875 -137.078125 L 103.390625 -137.375 C 103.390625 -137.757812 103.773438 -138.144531 104.546875 -138.53125 Z M 51.40625 -135.34375 C 51.40625 -134.375 50.820312 -133.597656 49.65625 -133.015625 L 50.25 -131.859375 L 51.109375 -130.984375 C 51.109375 -130.984375 51.15625 -130.929688 51.25 -130.828125 C 51.351562 -130.734375 51.40625 -130.6875 51.40625 -130.6875 L 50.828125 -129.53125 L 49.078125 -129.53125 C 48.492188 -129.53125 48.203125 -129.820312 48.203125 -130.40625 L 47.625 -131.5625 C 48.789062 -132.332031 49.179688 -132.910156 48.796875 -133.296875 L 47.921875 -133.296875 L 47.625 -133.59375 L 47.34375 -133.59375 C 47.34375 -133.976562 47.535156 -134.171875 47.921875 -134.171875 L 48.5 -134.171875 L 48.203125 -134.75 C 48.203125 -134.75 48.15625 -134.847656 48.0625 -135.046875 C 47.96875 -135.242188 47.820312 -135.34375 47.625 -135.34375 L 47.625 -136.203125 C 47.625 -136.398438 47.722656 -136.5 47.921875 -136.5 L 47.921875 -137.078125 L 48.5 -137.078125 L 49.375 -137.65625 C 49.757812 -137.269531 49.953125 -137.078125 49.953125 -137.078125 L 51.109375 -135.921875 Z M 130.6875 -126.625 C 130.300781 -126.238281 130.007812 -126.046875 129.8125 -126.046875 C 129.425781 -126.046875 129.234375 -125.945312 129.234375 -125.75 C 129.046875 -125.75 128.804688 -125.84375 128.515625 -126.03125 C 128.222656 -126.226562 128.078125 -126.523438 128.078125 -126.921875 C 128.078125 -127.492188 128.460938 -127.78125 129.234375 -127.78125 L 129.8125 -127.78125 L 130.6875 -127.5 Z M 49.078125 -125.75 C 49.273438 -125.5625 49.664062 -125.269531 50.25 -124.875 L 50.53125 -123.71875 L 47.34375 -123.71875 L 47.921875 -124.875 L 48.5 -125.171875 Z M 88.28125 -123.140625 C 88.675781 -123.523438 88.875 -124.203125 88.875 -125.171875 L 91.484375 -125.171875 L 91.484375 -124.296875 L 91.765625 -123.71875 L 91.765625 -123.140625 Z M 84.21875 -123.140625 C 84.21875 -122.554688 84.609375 -122.265625 85.390625 -122.265625 C 83.835938 -121.296875 82.476562 -121.296875 81.3125 -122.265625 L 83.0625 -122.5625 C 83.644531 -122.945312 84.078125 -123.234375 84.359375 -123.421875 C 84.648438 -123.617188 84.601562 -123.523438 84.21875 -123.140625 Z M 49.375 -122.265625 C 49.375 -122.078125 49.46875 -121.984375 49.65625 -121.984375 L 49.65625 -121.6875 L 47.921875 -120.8125 C 47.148438 -121.007812 46.375 -121.6875 45.59375 -122.84375 L 47.921875 -123.140625 L 48.5 -122.84375 L 49.078125 -122.84375 L 49.375 -122.5625 Z M 90.03125 -121.6875 C 90.03125 -121.6875 90.078125 -121.632812 90.171875 -121.53125 C 90.273438 -121.4375 90.328125 -121.390625 90.328125 -121.390625 L 90.328125 -120.8125 L 89.15625 -120.8125 C 88.570312 -120.8125 88.085938 -120.910156 87.703125 -121.109375 C 87.703125 -121.296875 87.941406 -121.535156 88.421875 -121.828125 C 88.910156 -122.117188 89.445312 -122.265625 90.03125 -122.265625 Z M 95.265625 -116.453125 C 94.679688 -115.878906 94.097656 -115.59375 93.515625 -115.59375 C 93.128906 -115.59375 92.546875 -115.394531 91.765625 -115 C 91.765625 -115.394531 91.671875 -115.6875 91.484375 -115.875 L 90.90625 -116.171875 L 90.328125 -116.75 L 90.90625 -117.328125 L 91.765625 -118.484375 C 92.734375 -119.066406 93.316406 -119.648438 93.515625 -120.234375 Z M 76.671875 -119.078125 L 76.671875 -119.9375 L 79 -119.65625 L 79 -118.484375 Z M 36.015625 -116.453125 C 35.816406 -116.648438 35.425781 -116.75 34.84375 -116.75 L 34.265625 -117.046875 L 32.53125 -117.625 C 32.53125 -118.195312 33.300781 -118.773438 34.84375 -119.359375 L 36.015625 -118.484375 Z M 77.828125 -118.203125 C 78.609375 -117.617188 78.609375 -116.941406 77.828125 -116.171875 L 77.25 -116.171875 L 76.671875 -116.453125 C 76.671875 -116.453125 76.617188 -116.5 76.515625 -116.59375 C 76.421875 -116.695312 76.375 -116.75 76.375 -116.75 L 76.671875 -117.328125 L 77.25 -117.90625 Z M 29.90625 -115.59375 C 29.332031 -115.59375 28.851562 -115.6875 28.46875 -115.875 L 29.046875 -117.625 C 29.234375 -117.625 29.421875 -117.570312 29.609375 -117.46875 C 29.804688 -117.375 30.003906 -117.328125 30.203125 -117.328125 L 31.359375 -117.328125 L 31.359375 -115.59375 Z M 44.71875 -115.875 C 44.71875 -116.070312 44.863281 -116.21875 45.15625 -116.3125 C 45.445312 -116.40625 45.691406 -116.550781 45.890625 -116.75 L 45.890625 -115.59375 C 45.890625 -115.007812 45.789062 -114.523438 45.59375 -114.140625 L 44.140625 -115 C 44.140625 -115.195312 44.332031 -115.488281 44.71875 -115.875 Z M 117.046875 -115.296875 C 117.234375 -115.492188 117.617188 -115.6875 118.203125 -115.875 C 118.785156 -116.070312 119.363281 -116.171875 119.9375 -116.171875 L 121.109375 -116.171875 L 121.984375 -115.875 L 120.8125 -114.71875 Z M 115.875 -114.71875 L 115.296875 -114.421875 L 115 -115.296875 L 115.59375 -115.296875 Z M 91.484375 -112.109375 L 91.484375 -113.84375 L 92.9375 -113.84375 L 92.9375 -112.109375 Z M 88.28125 -112.109375 C 89.644531 -111.523438 90.328125 -110.75 90.328125 -109.78125 L 87.703125 -109.78125 C 88.085938 -110.550781 88.28125 -111.328125 88.28125 -112.109375 Z M 118.484375 -111.515625 L 117.328125 -110.9375 L 117.328125 -111.515625 L 118.203125 -111.8125 Z M 76.375 -101.359375 C 75.988281 -100.972656 75.503906 -101.066406 74.921875 -101.640625 L 74.640625 -102.515625 C 74.640625 -103.296875 75.023438 -103.6875 75.796875 -103.6875 C 76.378906 -103.6875 76.863281 -103.585938 77.25 -103.390625 L 77.25 -101.359375 Z M 96.125 -99.328125 L 96.125 -100.484375 C 96.320312 -100.484375 96.421875 -100.582031 96.421875 -100.78125 L 98.15625 -100.78125 L 97.578125 -99.328125 Z M 78.40625 -78.703125 C 77.445312 -78.703125 76.769531 -79.1875 76.375 -80.15625 C 77.15625 -80.15625 77.738281 -80.054688 78.125 -79.859375 C 78.3125 -79.671875 78.40625 -79.285156 78.40625 -78.703125 Z M 61.5625 -76.671875 L 61.859375 -76.96875 C 66.117188 -77.925781 69.703125 -78.40625 72.609375 -78.40625 C 74.734375 -78.40625 76.378906 -78.117188 77.546875 -77.546875 C 81.023438 -75.410156 82.765625 -72.3125 82.765625 -68.25 C 82.765625 -65.726562 82.085938 -63.207031 80.734375 -60.6875 C 79.378906 -58.175781 77.734375 -56.144531 75.796875 -54.59375 C 72.316406 -51.882812 68.59375 -49.800781 64.625 -48.34375 C 60.65625 -46.894531 55.570312 -45.882812 49.375 -45.3125 L 50.53125 -74.34375 Z M 90.90625 -78.40625 L 91.484375 -78.40625 L 91.484375 -76.96875 L 90.90625 -76.96875 Z M 27.015625 -73.765625 C 27.015625 -73.179688 26.722656 -72.695312 26.140625 -72.3125 L 26.140625 -74.921875 C 26.722656 -74.347656 27.015625 -73.960938 27.015625 -73.765625 Z M 27.59375 -69.984375 C 27.59375 -69.984375 27.539062 -69.9375 27.4375 -69.84375 C 27.34375 -69.75 27.296875 -69.703125 27.296875 -69.703125 C 26.328125 -69.117188 25.941406 -68.441406 26.140625 -67.671875 C 26.328125 -67.472656 26.375 -67.273438 26.28125 -67.078125 C 26.1875 -66.890625 26.140625 -66.695312 26.140625 -66.5 C 25.941406 -66.695312 25.550781 -66.796875 24.96875 -66.796875 L 24.96875 -67.671875 C 25.75 -68.253906 26.140625 -68.832031 26.140625 -69.40625 C 25.554688 -69.988281 25.847656 -70.472656 27.015625 -70.859375 L 27.296875 -70.859375 L 27.296875 -70.28125 C 27.492188 -70.28125 27.59375 -70.179688 27.59375 -69.984375 Z M 27.015625 -63.609375 C 27.015625 -63.210938 26.867188 -62.578125 26.578125 -61.703125 C 26.285156 -60.835938 25.945312 -60.210938 25.5625 -59.828125 C 25.5625 -59.828125 25.847656 -59.535156 26.421875 -58.953125 C 26.421875 -58.953125 26.46875 -58.90625 26.5625 -58.8125 C 26.664062 -58.71875 26.71875 -58.671875 26.71875 -58.671875 L 26.140625 -58.375 C 25.941406 -58.570312 25.550781 -58.671875 24.96875 -58.671875 L 24.96875 -62.15625 C 24.582031 -63.3125 24.582031 -64.375 24.96875 -65.34375 L 26.140625 -65.34375 C 26.140625 -65.144531 26.332031 -64.851562 26.71875 -64.46875 Z M 38.046875 -63.890625 C 38.234375 -63.703125 38.28125 -63.507812 38.1875 -63.3125 C 38.09375 -63.113281 38.046875 -62.921875 38.046875 -62.734375 L 37.75 -63.3125 C 37.75 -63.695312 37.65625 -63.988281 37.46875 -64.1875 C 37.46875 -64.570312 37.660156 -64.859375 38.046875 -65.046875 Z M 26.140625 -53.4375 C 26.140625 -53.632812 26.039062 -53.78125 25.84375 -53.875 C 25.65625 -53.96875 25.5625 -54.015625 25.5625 -54.015625 C 25.363281 -54.015625 25.210938 -54.109375 25.109375 -54.296875 C 25.015625 -54.492188 24.96875 -54.59375 24.96875 -54.59375 L 26.140625 -54.59375 Z M 26.421875 -41.234375 C 26.234375 -40.847656 26.140625 -40.078125 26.140625 -38.921875 C 25.359375 -38.921875 24.875 -38.722656 24.6875 -38.328125 C 25.070312 -37.941406 25.363281 -37.75 25.5625 -37.75 C 25.945312 -37.75 26.140625 -37.554688 26.140625 -37.171875 C 25.941406 -37.171875 25.84375 -37.078125 25.84375 -36.890625 L 25.5625 -36.59375 L 24.390625 -37.75 C 23.816406 -38.132812 23.53125 -38.425781 23.53125 -38.625 L 23.8125 -39.78125 L 24.109375 -40.65625 L 24.96875 -40.65625 L 25.84375 -40.953125 C 25.457031 -41.335938 24.972656 -41.53125 24.390625 -41.53125 C 24.003906 -43.46875 23.8125 -45.5 23.8125 -47.625 C 23.8125 -48.007812 24.195312 -48.203125 24.96875 -48.203125 C 25.550781 -48.597656 25.84375 -48.988281 25.84375 -49.375 L 25.84375 -50.25 C 25.84375 -50.820312 25.941406 -51.207031 26.140625 -51.40625 L 26.421875 -46.46875 C 25.847656 -46.46875 25.363281 -46.175781 24.96875 -45.59375 C 25.164062 -45.40625 25.457031 -45.164062 25.84375 -44.875 C 26.226562 -44.582031 26.46875 -44.289062 26.5625 -44 C 26.664062 -43.707031 26.71875 -43.367188 26.71875 -42.984375 Z M 75.796875 -42.984375 C 75.410156 -42.597656 74.832031 -42.40625 74.0625 -42.40625 L 73.1875 -43.265625 L 74.34375 -43.859375 L 75.515625 -44.4375 Z M 23.8125 -35.140625 L 23.8125 -36.015625 L 24.109375 -36.296875 L 24.96875 -36.296875 L 26.140625 -36.015625 L 26.140625 -34.265625 L 25.265625 -34.265625 Z M 36.890625 -15.96875 C 36.890625 -15.96875 36.835938 -16.015625 36.734375 -16.109375 C 36.640625 -16.210938 36.59375 -16.265625 36.59375 -16.265625 L 36.59375 -16.84375 C 36.59375 -17.425781 36.785156 -18.054688 37.171875 -18.734375 C 37.554688 -19.410156 37.941406 -19.941406 38.328125 -20.328125 L 38.328125 -21.484375 L 38.046875 -22.65625 L 38.328125 -22.9375 C 38.328125 -23.132812 38.425781 -23.234375 38.625 -23.234375 C 38.039062 -24.785156 38.140625 -26.140625 38.921875 -27.296875 C 39.691406 -28.847656 40.078125 -30.6875 40.078125 -32.8125 L 40.65625 -34.5625 C 41.039062 -35.332031 41.429688 -35.910156 41.828125 -36.296875 L 41.828125 -15.96875 Z M 24.6875 -29.625 L 24.109375 -29.625 L 24.109375 -30.78125 L 24.6875 -30.78125 Z M 24.6875 -27.015625 L 24.109375 -27.015625 L 24.109375 -27.875 L 24.6875 -27.875 Z M 24.390625 -21.78125 C 23.617188 -21.582031 22.941406 -21.582031 22.359375 -21.78125 L 22.359375 -22.9375 L 24.390625 -22.9375 Z M 35.4375 -18 C 35.4375 -17.613281 35.238281 -17.226562 34.84375 -16.84375 C 34.457031 -16.457031 34.265625 -16.070312 34.265625 -15.6875 C 34.460938 -15.488281 34.5625 -15.097656 34.5625 -14.515625 C 34.5625 -13.742188 34.175781 -12.972656 33.40625 -12.203125 L 32.8125 -11.90625 L 32.53125 -11.90625 C 32.332031 -12.101562 32.234375 -12.6875 32.234375 -13.65625 C 32.234375 -14.8125 32.425781 -15.390625 32.8125 -15.390625 C 33.207031 -15.390625 33.789062 -16.359375 34.5625 -18.296875 C 34.75 -18.296875 34.84375 -18.195312 34.84375 -18 Z M 35.4375 -18 "/></g></g></g></svg>